# AST/ASF file generated using VICON BodyLanguage
# -----------------------------------------------
:version 1.10
:name VICON
:units
  mass 1.0
  length 0.45
  angle deg
:documentation
   .ast/.asf automatically generated from VICON data using
   VICON BodyBuilder and BodyLanguage model FoxedUp or BRILLIANT.MOD
:root
   order TX TY TZ RX RY RZ
   axis XYZ
   position 0 0 0  
   orientation 0 0 0 
:bonedata
  begin
     id 1 
     name lhipjoint
     direction 0.589753 -0.68606 0.426044 
     length 2.54082 
     axis 0 0 0  XYZ
  end
  begin
     id 2 
     name lfemur
     direction 0.34202 -0.939693 0  
     length 7.04539  
     axis 0 0 20  XYZ
    dof rx ry rz
    limits (-160.0 20.0)
           (-70.0 70.0)
           (-60.0 70.0)
  end
  begin
     id 3 
     name ltibia
     direction 0.34202 -0.939693 0   
     length 7.83772   
     axis 0 0 20   XYZ
    dof rx
    limits (-10.0 170.0)
  end
  begin
     id 4 
     name lfoot
     direction 0.0596604 -0.163915 0.984669   
     length 2.39542   
     axis -90 7.62852e-016 20   XYZ
    dof rx rz
    limits (-45.0 90.0)
           (-70.0 20.0)
  end
  begin
     id 5 
     name ltoes
     direction 1.53514e-011 -4.21954e-011 1   
     length 1.2047   
     axis -90 7.62852e-016 20   XYZ
    dof rx
    limits (-90.0 20.0)
  end
  begin
     id 6 
     name rhipjoint
     direction -0.580585 -0.69168 0.429534   
     length 2.52018  
     axis 0 0 0  XYZ 
  end
  begin
     id 7 
     name rfemur
     direction -0.34202 -0.939693 0   
     length 7.0101   
     axis 0 0 -20   XYZ
    dof rx ry rz
    limits (-160.0 20.0)
           (-70.0 70.0)
           (-70.0 60.0)
  end
  begin
     id 8 
     name rtibia
     direction -0.34202 -0.939693 0   
     length 7.70628   
     axis 0 0 -20   XYZ
    dof rx
    limits (-10.0 170.0)
 end
 begin
     id 9 
     name rfoot
     direction -0.0696237 -0.19129 0.979061   
     length 2.52466  
     axis -90 -7.62852e-016 -20   XYZ
    dof rx rz
    limits (-45.0 90.0)
           (-20.0 70.0)
  end
  begin
     id 10 
     name rtoes
     direction -1.53519e-011 -4.21793e-011 1   
     length 1.266   
     axis -90 -7.62852e-016 -20   XYZ
    dof rx
    limits (-90.0 20.0)
  end
  begin
     id 11 
     name lowerback
     direction 0.00381965 0.995707 -0.0924856   
     length 2.20825   
     axis 0 0 0   XYZ
    dof rx ry rz
    limits (-20.0 45.0)
           (-30.0 30.0)
           (-30.0 30.0)
  end
  begin
     id 12 
     name upperback
     direction -0.0139043 0.999634 -0.0231929   
     length 2.21517   
     axis 0 0 0   XYZ
    dof rx ry rz
    limits (-20.0 45.0)
           (-30.0 30.0)
           (-30.0 30.0)
  end
  begin
     id 13 
     name thorax
     direction -0.0143933 0.999691 0.0202892   
     length 2.22911   
     axis 0 0 0   XYZ
    dof rx ry rz
    limits (-20.0 45.0)
           (-30.0 30.0)
           (-30.0 30.0)
  end
  begin
     id 14 
     name lowerneck
     direction -0.0251153 0.981819 0.188153   
     length 1.61782   
     axis 0 0 0   XYZ
    dof rx ry rz
    limits (-20.0 45.0)
           (-30.0 30.0)
           (-30.0 30.0)
  end
  begin
     id 15 
     name upperneck
     direction 0.0563891 0.969357 -0.239095   
     length 1.64526   
     axis 0 0 0   XYZ
    dof rx ry rz
    limits (-20.0 45.0)
           (-30.0 30.0)
           (-30.0 30.0)
  end
  begin
     id 16
     name head
     direction 0.0208328 0.99459 -0.101773  
     length 1.67436  
     axis 0 0 0   XYZ
    dof rx ry rz
    limits (-20.0 45.0)
           (-30.0 30.0)
           (-30.0 30.0)
  end
  begin
     id 17 
     name lclavicle
     direction 0.917689 0.397224 0.00772059  
     length 3.31102  
     axis 0 0 0   XYZ
    dof ry rz
    limits (-20.0 10.0)
           (0.0 20.0)
  end
  begin
     id 18 
     name lhumerus
     direction 1 -4.4896e-011 2.32308e-027   
     length 5.25537   
     axis 180 -30 -90   XYZ
    dof rx ry rz
    limits (-60.0 90.0)
           (-90.0 90.0)
           (-90.0 90.0)
  end
  begin
     id 19
     name lradius
     direction 1 -4.49005e-011 -2.04271e-027   
     length 3.38855   
     axis 180 -30 -90   XYZ
    dof rx
    limits (-10.0 170.0)
  end
  begin
     id 20
     name lwrist
     direction 1 -4.48892e-011 2.56952e-028   
     length 1.69428   
     axis -5.12785e-016 90 90   XYZ
    dof ry
    limits (-180.0 0.0)
 end
  begin
     id 21 
     name lhand
     direction 1 -4.48966e-011 5.13905e-028   
     length 0.614516   
     axis -3.27915e-016 90 90   XYZ
    dof rx rz
    limits (-90.0 90.0)
           (-45.0 45.0)
  end
  begin
     id 22 
     name lfingers
     direction 1 -4.48979e-011 1.02781e-027   
     length 0.495439   
     axis -6.5583e-016 90 90   XYZ
    dof rx
    limits (0.0 90.0)
  end
  begin
     id 23
     name lthumb
     direction 0.707107 -6.35001e-011 0.707107   
     length 0.711354   
     axis -90 45 2.85299e-015   XYZ
    dof rx rz
    limits (-45.0 45.0)
           (-45.0 45.0)
  end
  begin
     id 24 
     name rclavicle
     direction -0.938556 0.342765 -0.0403177   
     length 3.27019  
     axis 0 0 0   XYZ 
    dof ry rz
    limits (-10.0 20.0)
           (-20.0 0.0)
  end
  begin
     id 25 
     name rhumerus
     direction -1 -4.48966e-011 2.52291e-027  
     length 5.38183   
     axis 180 30 90   XYZ
    dof rx ry rz
    limits (-90.0 60.0)
           (-90.0 90.0)
           (-90.0 90.0)
  end
  begin
     id 26 
     name rradius
     direction -1 -4.4896e-011 1.5797e-027   
     length 3.16988   
     axis 180 30 90   XYZ
    dof rx
    limits (-10.0 170.0)
  end
  begin
     id 27 
     name rwrist
     direction -1 -4.48947e-011 2.56952e-028   
     length 1.58494   
     axis -5.12785e-016 -90 -90   XYZ
    dof ry
    limits (-180.0 0.0)
  end
  begin
     id 28
     name rhand
     direction -1 -4.49098e-011 5.13905e-028   
     length 0.637679   
     axis -3.27915e-016 -90 -90   XYZ
    dof rx rz
    limits (-90.0 90.0)
           (-45.0 45.0)
  end
  begin
     id 29
     name rfingers
     direction -1 -4.49026e-011 1.02781e-027   
     length 0.514113   
     axis -6.5583e-016 -90 -90   XYZ
    dof rx
    limits (0.0 90.0)
  end
  begin
     id 30
     name rthumb
     direction -0.707107 -6.3491e-011 0.707107   
     length 0.738167   
     axis -90 -45 -2.85299e-015   XYZ
    dof rx rz
    limits (-45.0 45.0)
           (-45.0 45.0)
  end
:hierarchy
  begin
    root lhipjoint rhipjoint lowerback
    lhipjoint lfemur
    lfemur ltibia
    ltibia lfoot
    lfoot ltoes
    rhipjoint rfemur
    rfemur rtibia
    rtibia rfoot
    rfoot rtoes
    lowerback upperback
    upperback thorax
    thorax lowerneck lclavicle rclavicle
    lowerneck upperneck
    upperneck head
    lclavicle lhumerus
    lhumerus lradius
    lradius lwrist
    lwrist lhand lthumb
    lhand lfingers
    rclavicle rhumerus
    rhumerus rradius
    rradius rwrist
    rwrist rhand rthumb
    rhand rfingers
  end

#!OML:ASF H:\Swim\Project 1\Capture day 1\Session 1\swimmer.ASF
:FULLY-SPECIFIED
:DEGREES
2858
root 2.0026 17.6451 -21.7983 90.4378 -3.55465 27.9659
lowerback 9.57829 -6.7897 -4.63115
upperback -6.78339 -10.4456 -3.07448
thorax -12.5593 -4.78454 1.29289
lowerneck -9.56134 -7.80506 -15.7505
upperneck 7.08176 -9.58374 12.7186
head 5.08047 -4.50753 5.77012
rclavicle -5.48646e-014 9.34288e-015
rhumerus 80.0064 -26.2639 -29.5501
rradius 30.5176
rwrist -198.412
rhand -15.7573 8.85163
rfingers 7.12502
rthumb 10.4343 -20.8694
lclavicle -5.48646e-014 9.34288e-015
lhumerus 97.9462 -4.81082 71.4554
lradius 13.0974
lwrist -54.8372
lhand -20.0572 12.1697
lfingers 7.12502
lthumb 6.28461 42.0565
rfemur -4.36126 -36.8439 -15.3506
rtibia 78.2069
rfoot 9.97911 -6.93912
rtoes 38.9113
lfemur -17.8519 -1.29974 -31.389
ltibia 64.1728
lfoot 8.73541 14.184
ltoes 9.27232
2859
root 1.97273 17.5932 -21.8339 91.7199 -3.91133 28.1188
lowerback 9.17302 -6.96714 -4.63956
upperback -6.85628 -10.6697 -3.04706
thorax -12.3827 -4.90452 1.31675
lowerneck -9.11052 -7.76888 -16.0343
upperneck 5.66145 -9.53277 13.3089
head 4.61146 -4.48149 6.02993
rclavicle 5.32743e-014 -4.96962e-015
rhumerus 79.2383 -27.3438 -27.3819
rradius 30.7527
rwrist -197.375
rhand -16.2203 8.66504
rfingers 7.12502
rthumb 9.98766 -21.078
lclavicle 5.32743e-014 -4.96962e-015
lhumerus 98.1927 -3.8875 70.9528
lradius 13.3641
lwrist -57.1497
lhand -19.2985 11.7383
lfingers 7.12502
lthumb 7.01702 41.602
rfemur -5.74521 -36.5358 -13.7549
rtibia 74.6803
rfoot 7.81363 -7.65532
rtoes 38.208
lfemur -18.7179 -1.7356 -31.7139
ltibia 60.8532
lfoot 8.65227 14.7089
ltoes 10.0889
2860
root 1.94688 17.5393 -21.8683 93.1185 -4.29195 28.3752
lowerback 8.62376 -7.17953 -4.59611
upperback -6.96621 -10.9307 -3.02922
thorax -12.1723 -5.05164 1.28934
lowerneck -8.62938 -7.7356 -16.3867
upperneck 4.17885 -9.48027 14.0169
head 4.13348 -4.4558 6.34218
rclavicle -3.57812e-014 7.7526e-015
rhumerus 78.3615 -28.3874 -25.2572
rradius 31.004
rwrist -196.162
rhand -16.6949 8.46361
rfingers 7.12502
rthumb 9.52972 -21.3009
lclavicle -3.57812e-014 7.7526e-015
lhumerus 98.425 -3.05292 70.7284
lradius 13.5691
lwrist -59.3952
lhand -18.6113 11.3554
lfingers 7.12502
lthumb 7.68035 41.196
rfemur -7.16725 -36.2776 -12.2716
rtibia 71.1445
rfoot 5.39655 -8.31418
rtoes 37.5016
lfemur -19.6956 -2.34576 -32.0147
ltibia 57.4726
lfoot 8.9106 14.9505
ltoes 9.80069
2861
root 1.92572 17.4842 -21.9022 94.6398 -4.69628 28.75
lowerback 7.9198 -7.42799 -4.48845
upperback -7.11815 -11.2291 -3.01718
thorax -11.93 -5.22745 1.20544
lowerneck -8.09928 -7.70272 -16.8091
upperneck 2.61974 -9.42138 14.8426
head 3.6392 -4.43017 6.70925
rclavicle 0 6.95746e-015
rhumerus 77.4169 -29.3942 -23.2428
rradius 31.2608
rwrist -194.733
rhand -17.2343 8.27279
rfingers 7.12502
rthumb 9.00927 -21.5148
lclavicle 0 6.95746e-015
lhumerus 98.6595 -2.38444 70.9915
lradius 13.6765
lwrist -61.6005
lhand -18.068 11.012
lfingers 7.12502
lthumb 8.20473 40.8327
rfemur -8.64433 -36.088 -10.892
rtibia 67.6271
rfoot 2.94801 -8.95922
rtoes 36.8518
lfemur -20.7982 -3.16052 -32.2718
ltibia 54.0407
lfoot 9.5127 14.8148
ltoes 8.68417
2862
root 1.90833 17.4287 -21.9357 96.2597 -5.11812 29.2152
lowerback 7.08968 -7.69621 -4.33045
upperback -7.31119 -11.5471 -3.00217
thorax -11.6698 -5.42079 1.08073
lowerneck -7.51869 -7.67661 -17.3499
upperneck 0.94537 -9.35946 15.878
head 3.12632 -4.40625 7.17059
rclavicle -1.74931e-014 1.76918e-014
rhumerus 76.4412 -30.3528 -21.4055
rradius 31.5175
rwrist -193.049
rhand -17.8323 8.10347
rfingers 7.12502
rthumb 8.43219 -21.7082
lclavicle -1.74931e-014 1.76918e-014
lhumerus 98.9067 -1.91415 71.8094
lradius 13.6754
lwrist -63.8186
lhand -17.7521 10.7372
lfingers 7.12502
lthumb 8.50955 40.5457
rfemur -10.1877 -35.9166 -9.60228
rtibia 64.158
rfoot 0.508033 -9.76454
rtoes 36.4785
lfemur -22.0056 -4.15692 -32.4537
ltibia 50.562
lfoot 10.4376 14.2636
ltoes 7.09377
2863
root 1.89276 17.3732 -21.9669 97.9518 -5.50894 29.7058
lowerback 6.17047 -7.96415 -4.11488
upperback -7.54074 -11.8579 -2.96577
thorax -11.4077 -5.61709 0.930748
lowerneck -6.93636 -7.65444 -17.9238
upperneck -0.761951 -9.28468 16.973
head 2.61352 -4.38222 7.66473
rclavicle 5.80451e-014 1.99779e-014
rhumerus 75.5113 -31.2428 -19.8775
rradius 31.7698
rwrist -191.072
rhand -18.4926 7.93675
rfingers 7.12502
rthumb 7.79491 -21.8996
lclavicle 5.80451e-014 1.99779e-014
lhumerus 99.1535 -1.63787 73.2073
lradius 13.5795
lwrist -66.2995
lhand -17.6946 10.5783
lfingers 7.12502
lthumb 8.56507 40.3846
rfemur -11.8159 -35.6801 -8.33385
rtibia 60.7812
rfoot -1.90111 -10.7465
rtoes 36.2794
lfemur -23.2924 -5.29575 -32.4931
ltibia 47.048
lfoot 11.6188 13.2931
ltoes 5.17223
